<?xml version="1.0" encoding="utf-8"?><!DOCTYPE svg PUBLIC "-//W3C//DTD SVG 1.1//EN" "http://www.w3.org/Graphics/SVG/1.1/DTD/svg11.dtd"><svg xmlns="http://www.w3.org/2000/svg" xml:space="preserve" width="512px" height="491.003px" x="0px" y="0px" version="1.1" viewBox="0 0 512 491.003"><path d="M25.42 194.929c31.95-13.048 70.947-51.238 106.283-79.948 4.046 40.327-17.095 110.341-55.988 125.833-8.593 3.42-18.208 2.625-26.073-2.239-10.821-6.707-19.38-20.505-24.222-43.646zm12.309-66.741c-6.547-.864-12.979 2.229-16.73 7.661l-.102.147c-2.023 3.001-3.263 6.445-3.684 10.037-1.375 11.729-.75 25.255.682 39.486-6.694.545-10.32-5.661-11.251-17.834-.58-7.615-.125-15.037.909-22.606 5.683-41.452 26.063-81.631 69.992-105.863 11.56-6.365 26.119-3.523 34.087 6.979 10.865 14.343 16.367 33.927 19.141 54.681-21.563 18.845-54.375 54.841-106.285 83.71-.727-14.673-2.954-27.54-1.385-37.132.283-1.83.897-3.615 1.83-5.229 2.159-3.728 5.194-6.388 9.014-8.07a25.445 25.445 0 0 0 2.012-.943c5.465-2.921 5.715-4.513 1.77-5.024zM211.334 7.821c1.262-9.479-8.138-10.41-12.298-2.409-13.821 33.586-35.098 63.479-61.684 90.757-4.387-53.863-21.629-70.548-43.271-70.548C39.536 25.621.028 99.932.028 158.25c0 31.029 3.762 38.554 18.811 38.554 2.864 23.619 12.343 37.962 23.767 46.691 10.342 7.899 24.254 9.319 36.201 4.148 50.328-21.753 61.682-78.55 59.489-140.188 33.769-34.87 57.808-65.615 73.038-99.634zm159.283 148.543c-.943-2.819-4.705-2.819-5.648 0 0 7.479-3.443 12.992-8.535 15.469-3.114 1.523-6.879.136-8.39-2.978-2.354-4.831-5.263-8.275-10.547-13.64-3.24-3.285-7.548-5.411-12.162-5.695-2.104-.125-4.103.16-5.513 1.194-9.501 9.354-15.014 22.629-20.687 40.451-2.842.239-5.956-1.205-7.184-9.116-1.034-6.706 1.193-13.412 5.535-18.64.67-.818 1.307-1.784 1.933-2.943.682-1.262.204-2.899-1.114-3.467-1.387-.591-3.441-.67-5.796-.659a20.63 20.63 0 0 0-8.899 2.068c-5.443 2.671-12.629 3.296-20.823 2.751-2.806-.193-5.479 1.716-5.854 4.512-.021.182-.033.364-.044.546-.239 6.104-1.979 12.252-3.842 19.3-.705-6.831-3.762-16.924-7.525-23.505-3.295-6.035-7.284-7.013-11.285-4.91-3.523 1.863-5.707 5.58-5.876 9.558-.944 21.891 2.171 37.542-5.41 52.727-.934 1.876-3.764 2.819-5.639 0-5.944-8.933-7.398-25.107-12.024-50.624a2.774 2.774 0 0 0-1.694-2.091c-.432-.182-.875-.33-1.716-.25-4.046.386-6.728 4.148-5.989 8.139 3.216 17.39 4.625 31.688-.897 37.542-1.171 1.239-3.08 1.478-4.559.625-4.114-2.364-6.536-7.433-7.785-15.708-1.262-8.342-.647-16.855 1.363-25.073 3.479-14.15 4.922-28.346 4.365-42.588-.137-3.262-.933-6.49-2.512-9.343-3.296-5.933-6.876-5.535-10.65-.92-2.671 3.273-4.285 7.297-4.819 11.502-2.637 20.629.558 47.738 2.069 69.049.136 4.751.863 9.866 2.057 15.253 1.739 7.899 8.582 13.719 16.675 14.037 5.558.216 10.785-1.352 15.775-4.819-.25 4.853 1.887 8.467 4.706 12.229 6.581 6.581 10.343 7.524 16.935 0 4.535-5.796 5.638-15.06 5.638-23.516.944-16.935.796-31.063 0-39.508 7.286-1.604 13.15 10.934 11.502 47.453-.171 3.773 1.501 7.501 4.637 9.581 2.944 1.955 6.013 1.898 8.729-.591 2.271-2.069 3.147-5.229 2.646-8.252-1.919-11.604-.738-24.392.284-37.281.331-3.966 2.149-7.683 5.15-10.309 5.138-4.5 10.365-5.911 17.833-6.24-2.284 13.026-3.023 26.676-.568 41.873.74 4.592 5.443 7.649 9.82 6.068.217-.091.442-.17.658-.284 1.354-.614 2.455-1.636 3.318-2.83 5.798-8.173 11.139-27.324 18.754-46.714-.158 3.842 4.694 8.467 7.524 9.411 4.707.932 11.695.387 15.992-2.83 12.755 13.503 30.429 6.127 30.088-16.014zM245.522 82.996c-2.705-.079-5.729 2.944-5.648 5.649.137 4.581 9.252 7.683 11.287 5.638 2.046-2.034-1.058-11.139-5.639-11.287zm91.236 11.287c-6.364-2.626-15.9.341-16.936 5.648-.909 4.648 4.684 11.275 11.286 11.287 6.523.011 12.254-6.434 11.285-11.287-.714-3.602-4.907-5.341-5.635-5.648zm-37.929 195.62c1.831-2.399 5.568-1.967 6.693.841 6.524 16.196 7.094 48.748 8.662 111.115-4.706 9.398-11.595 32.447-15.049 45.143 0 .059 0 .115-.011.172-.104 4.115 5.308 5.865 7.625 2.455 1.796-2.66 7.435-16.73 8.365-19.561.943 12.23 5.786 35.666 4.877 55.057-.124 2.639 1.558 5.148 4.125 5.752 1.897.465 3.547-.318 4.797-3.059.967-2.125 1.184-4.512.809-6.809-3.911-23.709-5.469-48.76-4.252-75.391 19.526-34.701 39.417-67.355 61.285-89.007 5.342-5.296 12.98-7.832 20.312-6.172 7.639 1.717 12.765 7.207 14.332 18.049 3.773 36.405 8.514 66.319 9.399 122.274.784 6.184 4.627 8.605 9.865 9.297 3.764.49 7.865.398 11.128-1.557 12.729-7.627 26.596-14.094 59.593-98.156.237-.637.441-1.295.521-1.955.317-2.352-.534-3.25-2.548-2.705-1.497.422-2.736 1.5-3.408 2.91-17.787 37.939-37.042 81.607-60.443 90.805-3.479 1.373-6.536-.467-6.832-4.207-4.068-52.307-6.921-107.295-10.684-128.936-1.888-8.469-5.31-13.879-16.617-15.537-9.455-1.389-19.037 1.229-26.812 6.773-15.617 11.149-28.598 25.164-38.396 42.633 7.048-26.914 12.685-52.045 13.14-70.537.045-1.602-.103-3.215-.5-4.763-1.362-5.433-4.342-6.796-8.854-4.341-2.771 1.512-4.978 3.909-6.421 6.706-11.298 21.867-20.517 43.429-22.72 63.944 1.317-12.889.738-30.211-7.16-90.395-.388-3.012-2.114-5.75-4.811-7.115-2.307-1.16-4.601-.91-6.896.545-2.286 1.443-3.844 3.786-4.547 6.4-12.491 46.383-29.268 98.123-28.358 127.766 0 8.467 5.649 15.99 10.354 10.344 4.809-38.185 8.743-84.764 19.437-98.778zm30.234 80.21c-2.797 1.842-5.684-1.604-5.479-4.945.966-16.035 3.593-23.162 7.524-36.678 2.067-4.83 4.479-9.559 7.593-13.662 1.192-1.568 3.717-.705 3.717 1.272 0 17.664-2.58 28.505-7.547 44.374-1.898 4.752-3.228 7.934-5.808 9.639z"/></svg>
